<?xml version="1.0" standalone="no"?><!DOCTYPE svg PUBLIC "-//W3C//DTD SVG 1.1//EN" "http://www.w3.org/Graphics/SVG/1.1/DTD/svg11.dtd"><svg t="1706685164746" class="icon" viewBox="0 0 1024 1024" version="1.1" xmlns="http://www.w3.org/2000/svg" p-id="4522" xmlns:xlink="http://www.w3.org/1999/xlink" width="30" height="30"><path d="M268.027015 755.981722a353.975309 353.975309 0 1 0 500.587945-500.605419 353.975309 353.975309 0 1 0-500.587945 500.605419Z" fill="#E9EAEB" p-id="4523"></path><path d="M265.481481 265.481481h25.283951v366.617284h-25.283951zM202.271605 872.296296h581.530864v25.283951h-581.530864zM151.703704 872.296296h25.28395v25.283951h-25.28395zM809.08642 872.296296h25.28395v25.283951h-25.28395z" fill="#2A5082" p-id="4524"></path><path d="M606.814815 341.333333v101.135803l-48.039506 46.775308c-10.11358 10.11358-22.755556 16.434568-36.661729 16.434568h-67.002469c-39.190123 0-88.493827 35.397531-88.493827 88.493828v88.493827h214.91358v-101.135803l69.530864-69.530864c11.377778-11.377778 18.962963-27.812346 18.962963-44.246914v-63.209876c0-35.397531-27.812346-63.209877-63.209876-63.209877z" fill="#FFFFFF" p-id="4525"></path><path d="M594.17284 682.666667h-25.283951v-106.192593l73.323457-73.323457c10.11358-10.11358 15.17037-22.755556 15.17037-35.397531v-63.209876c0-24.019753-16.434568-42.982716-37.925926-49.303704v92.28642l-51.832099 50.567901c-11.377778 12.641975-27.812346 20.22716-45.511111 20.227161h-67.002469c-30.340741 0-75.851852 29.076543-75.851852 75.851852v88.493827h-25.28395v-88.493827c0-58.153086 53.096296-101.135802 101.135802-101.135803h67.002469c10.11358 0 20.22716-3.792593 27.812346-12.641975l44.246914-44.246914V328.691358h12.641975c41.718519 0 75.851852 34.133333 75.851852 75.851852v61.945679c0 20.22716-7.585185 39.190123-22.755556 53.096296l-65.738271 65.738272V682.666667z" fill="#2A5082" p-id="4526"></path><path d="M493.037037 467.753086c27.812346 0 50.567901-24.019753 50.567901-53.096296v-20.22716c0-29.076543-22.755556-53.096296-50.567901-53.096297s-50.567901 24.019753-50.567901 53.096297v20.22716c0 29.076543 22.755556 53.096296 50.567901 53.096296z" fill="#FFFFFF" p-id="4527"></path><path d="M493.037037 480.395062c-35.397531 0-63.209877-29.076543-63.209877-65.738272v-20.22716c0-36.661728 27.812346-65.738272 63.209877-65.738272s63.209877 29.076543 63.209877 65.738272v20.22716c0 35.397531-27.812346 65.738272-63.209877 65.738272z m0-126.419753c-21.491358 0-37.925926 17.698765-37.925926 40.454321v20.22716c0 22.755556 16.434568 40.454321 37.925926 40.454321s37.925926-17.698765 37.925926-40.454321v-20.22716c0-22.755556-16.434568-40.454321-37.925926-40.454321zM429.82716 594.17284h25.283951v88.493827h-25.283951z" fill="#2A5082" p-id="4528"></path><path d="M227.555556 657.382716h505.679012v25.283951h-505.679012z" fill="#2A5082" p-id="4529"></path><path d="M606.814815 214.91358c0 53.096296 79.644444 99.871605 120.098765 21.491358 5.05679-8.849383 6.320988-18.962963 6.320988-27.812345V139.061728h-505.679012v69.530865c0 10.11358 2.528395 20.22716 6.320987 27.812345 40.454321 78.380247 120.098765 31.604938 120.098766-21.491358 0 32.869136 30.340741 63.209877 63.209876 63.209877s63.209877-30.340741 63.209877-63.209877c0 32.869136 30.340741 63.209877 63.209876 63.209877s63.209877-30.340741 63.209877-63.209877z" fill="#A3D4FF" p-id="4530"></path><path d="M290.765432 290.765432c-27.812346 0-51.832099-17.698765-68.266667-48.039506-5.05679-10.11358-7.585185-21.491358-7.585185-34.133333V126.419753h530.962963v82.17284c0 12.641975-2.528395 24.019753-7.585185 34.133333-18.962963 36.661728-50.567901 54.360494-83.437037 46.775309-18.962963-5.05679-36.661728-17.698765-46.775309-34.133334-13.906173 21.491358-37.925926 35.397531-63.209876 35.397531s-49.303704-15.17037-63.209877-35.397531c-13.906173 21.491358-37.925926 35.397531-63.209876 35.397531s-49.303704-15.17037-63.209877-35.397531c-11.377778 16.434568-27.812346 29.076543-46.775308 34.133334-7.585185 1.264198-12.641975 1.264198-17.698766 1.264197z m-50.567901-139.061728v56.888889c0 8.849383 1.264198 16.434568 5.05679 22.755555 13.906173 26.548148 32.869136 39.190123 55.624691 32.869136 22.755556-5.05679 40.454321-27.812346 40.454321-49.303704h25.283951c0 26.548148 24.019753 50.567901 50.567901 50.567901s50.567901-24.019753 50.567901-50.567901h25.283951c0 26.548148 24.019753 50.567901 50.567901 50.567901s50.567901-24.019753 50.567902-50.567901h25.28395c0 21.491358 17.698765 44.246914 40.454321 49.303704 21.491358 5.05679 41.718519-6.320988 55.624691-32.869136 3.792593-6.320988 5.05679-13.906173 5.056791-22.755555V151.703704h-480.395062z" fill="#2A5082" p-id="4531"></path><path d="M341.333333 189.62963h25.283951v25.28395h-25.283951zM467.753086 189.62963h25.283951v25.28395h-25.283951zM594.17284 189.62963h25.28395v25.28395h-25.28395z" fill="#2A5082" p-id="4532"></path><path d="M278.123457 670.024691h404.54321v214.913581h-404.54321z" fill="#E9EAEB" p-id="4533"></path><path d="M695.308642 897.580247h-429.827161V657.382716h429.827161v240.197531z m-404.54321-25.283951h379.259259V682.666667h-379.259259v189.629629z" fill="#2A5082" p-id="4534"></path><path d="M341.333333 733.234568h278.123457v88.493827h-278.123457z" fill="#FFFFFF" p-id="4535"></path><path d="M632.098765 834.37037h-303.407407v-113.777777h303.407407v113.777777z m-278.123456-25.28395h252.839506v-63.209877h-252.839506v63.209877z" fill="#2A5082" p-id="4536"></path></svg>