<?xml version="1.0" standalone="no"?><!DOCTYPE svg PUBLIC "-//W3C//DTD SVG 1.1//EN" "http://www.w3.org/Graphics/SVG/1.1/DTD/svg11.dtd"><svg t="1706685184193" class="icon" viewBox="0 0 1084 1024" version="1.1" xmlns="http://www.w3.org/2000/svg" p-id="4884" xmlns:xlink="http://www.w3.org/1999/xlink" width="31.7578125" height="30"><path d="M261.275618 752.170509a340.476788 340.476788 0 1 0 481.498487-481.515295 340.476788 340.476788 0 1 0-481.498487 481.515295Z" fill="#E9EAEB" p-id="4885"></path><path d="M318.634881 300.647428h603.864492v334.052697h-603.864492z" fill="#FFFFFF" p-id="4886"></path><path d="M935.347553 647.548306h-629.560853v-359.749059h629.560853v359.749059z m-603.864492-25.696361h578.168131v-308.356336h-578.168131v308.356336z" fill="#2A5082" p-id="4887"></path><path d="M819.713927 570.459222h-398.293601c0-21.841907-16.702635-38.544542-38.544542-38.544542v-128.481807c21.841907 0 38.544542-16.702635 38.544542-38.544542h398.293601c0 21.841907 16.702635 38.544542 38.544542 38.544542v128.481807c-21.841907 0-38.544542 17.987453-38.544542 38.544542z" fill="#A3D4FF" p-id="4888"></path><path d="M832.562108 583.307403h-423.989962v-12.848181c0-14.132999-11.563363-25.696361-25.696362-25.696361h-12.84818v-154.178168h12.84818c14.132999 0 25.696361-11.563363 25.696362-25.696362v-12.84818h423.989962v12.84818c0 14.132999 11.563363 25.696361 25.696361 25.696362h12.848181v154.178168h-12.848181c-14.132999 0-25.696361 11.563363-25.696361 25.696361v12.848181z m-400.863237-25.696362h376.451694c5.139272-17.987453 19.272271-32.120452 37.259724-37.259724v-106.639899c-17.987453-5.139272-32.120452-19.272271-37.259724-37.259724H431.698871c-5.139272 17.987453-19.272271 32.120452-37.259724 37.259724v106.639899c19.272271 5.139272 33.40527 19.272271 37.259724 37.259724z" fill="#2A5082" p-id="4889"></path><path d="M472.813049 454.825596h25.696361v25.696361h-25.696361zM742.624843 454.825596h25.696362v25.696361h-25.696362z" fill="#2A5082" p-id="4890"></path><path d="M562.750314 467.673777c0-35.974906 25.696361-64.240903 57.816813-64.240904s57.816813 28.265997 57.816813 64.240904-25.696361 64.240903-57.816813 64.240903-57.816813-28.265997-57.816813-64.240903z" fill="#FFFFFF" p-id="4891"></path><path d="M620.567127 544.762861c-19.272271 0-37.259724-7.708908-50.107905-23.126725-12.848181-14.132999-20.557089-33.40527-20.557089-53.962359h12.848181-12.848181c0-20.557089 7.708908-39.82936 20.557089-53.962359 12.848181-15.417817 30.835634-23.126725 50.107905-23.126725s37.259724 7.708908 50.107904 23.126725c12.848181 14.132999 20.557089 33.40527 20.557089 53.962359 0 42.398996-32.120452 77.089084-70.664993 77.089084z m0-128.481807c-11.563363 0-23.126725 5.139272-30.835634 14.132999-8.993726 10.278545-14.132999 23.126725-14.132999 37.259724 0 14.132999 5.139272 26.981179 14.132999 37.259724 8.993726 8.993726 19.272271 14.132999 30.835634 14.132998 24.411543 0 44.968632-23.126725 44.968632-51.392722 0-14.132999-5.139272-26.981179-14.132999-37.259724-8.993726-8.993726-19.272271-14.132999-30.835633-14.132999z" fill="#2A5082" p-id="4892"></path><path d="M331.483061 185.013802c50.107905 0 89.937265 16.702635 89.937265 38.544542v385.44542c0 21.841907-39.82936 38.544542-89.937265 38.544542s-89.937265-16.702635-89.937264-38.544542v-385.44542c0-20.557089 39.82936-38.544542 89.937264-38.544542z" fill="#FFFFFF" p-id="4893"></path><path d="M331.483061 339.19197c-51.392723 0-102.785445-17.987453-102.785445-51.392723v-64.240903h25.696361v64.240903c0 8.993726 29.550816 25.696361 77.089084 25.696362s77.089084-16.702635 77.089085-25.696362v-64.240903h25.696361v64.240903c0 33.40527-52.677541 51.392723-102.785446 51.392723z" fill="#2A5082" p-id="4894"></path><path d="M331.483061 403.432873c-51.392723 0-102.785445-17.987453-102.785445-51.392722v-64.240904h25.696361v64.240904c0 8.993726 29.550816 25.696361 77.089084 25.696361s77.089084-16.702635 77.089085-25.696361v-64.240904h25.696361v64.240904c0 33.40527-52.677541 51.392723-102.785446 51.392722z" fill="#2A5082" p-id="4895"></path><path d="M331.483061 467.673777c-51.392723 0-102.785445-17.987453-102.785445-51.392723v-64.240903h25.696361v64.240903c0 8.993726 29.550816 25.696361 77.089084 25.696361s77.089084-16.702635 77.089085-25.696361v-64.240903h25.696361v64.240903c0 33.40527-52.677541 51.392723-102.785446 51.392723z" fill="#2A5082" p-id="4896"></path><path d="M331.483061 531.91468c-51.392723 0-102.785445-17.987453-102.785445-51.392723v-64.240903h25.696361v64.240903c0 8.993726 29.550816 25.696361 77.089084 25.696362s77.089084-16.702635 77.089085-25.696362v-64.240903h25.696361v64.240903c0 33.40527-52.677541 51.392723-102.785446 51.392723z" fill="#2A5082" p-id="4897"></path><path d="M331.483061 596.155583c-51.392723 0-102.785445-17.987453-102.785445-51.392722v-64.240904h25.696361v64.240904c0 8.993726 29.550816 25.696361 77.089084 25.696361s77.089084-16.702635 77.089085-25.696361v-64.240904h25.696361v64.240904c0 33.40527-52.677541 51.392723-102.785446 51.392722z" fill="#2A5082" p-id="4898"></path><path d="M331.483061 660.396487c-51.392723 0-102.785445-17.987453-102.785445-51.392723v-128.481807h25.696361v128.481807c0 8.993726 29.550816 25.696361 77.089084 25.696361s77.089084-16.702635 77.089085-25.696361v-128.481807h25.696361v128.481807c0 33.40527-52.677541 51.392723-102.785446 51.392723zM331.483061 274.951066c-51.392723 0-102.785445-17.987453-102.785445-51.392722s51.392723-51.392723 102.785445-51.392723 102.785445 17.987453 102.785446 51.392723-52.677541 51.392723-102.785446 51.392722z m0-77.089084c-47.538269 0-77.089084 16.702635-77.089084 25.696362s29.550816 25.696361 77.089084 25.696361 77.089084-16.702635 77.089085-25.696361-29.550816-25.696361-77.089085-25.696362z" fill="#2A5082" p-id="4899"></path><path d="M472.813049 544.762861c50.107905 0 89.937265 16.702635 89.937265 38.544542v128.481807c0 21.841907-39.82936 38.544542-89.937265 38.544542s-89.937265-16.702635-89.937265-38.544542v-128.481807c0-20.557089 39.82936-38.544542 89.937265-38.544542z" fill="#FFFFFF" p-id="4900"></path><path d="M472.813049 698.941029c-51.392723 0-102.785445-17.987453-102.785445-51.392723v-64.240903h25.696361v64.240903c0 8.993726 29.550816 25.696361 77.089084 25.696362s77.089084-16.702635 77.089084-25.696362v-64.240903h25.696361v64.240903c0 33.40527-52.677541 51.392723-102.785445 51.392723z" fill="#2A5082" p-id="4901"></path><path d="M472.813049 763.181932c-51.392723 0-102.785445-17.987453-102.785445-51.392722v-64.240904h25.696361v64.240904c0 8.993726 29.550816 25.696361 77.089084 25.696361s77.089084-16.702635 77.089084-25.696361v-64.240904h25.696361v64.240904c0 33.40527-52.677541 51.392723-102.785445 51.392722zM472.813049 634.700125c-51.392723 0-102.785445-17.987453-102.785445-51.392722s51.392723-51.392723 102.785445-51.392723 102.785445 17.987453 102.785445 51.392723-52.677541 51.392723-102.785445 51.392722z m0-77.089084c-47.538269 0-77.089084 16.702635-77.089084 25.696362s29.550816 25.696361 77.089084 25.696361 77.089084-16.702635 77.089084-25.696361-29.550816-25.696361-77.089084-25.696362z" fill="#2A5082" p-id="4902"></path></svg>