<?xml version="1.0" standalone="no"?><!DOCTYPE svg PUBLIC "-//W3C//DTD SVG 1.1//EN" "http://www.w3.org/Graphics/SVG/1.1/DTD/svg11.dtd"><svg t="1706685175668" class="icon" viewBox="0 0 1084 1024" version="1.1" xmlns="http://www.w3.org/2000/svg" p-id="4703" xmlns:xlink="http://www.w3.org/1999/xlink" width="31.7578125" height="30"><path d="M542.193225 498.50941m-327.628608 0a327.628607 327.628607 0 1 0 655.257215 0 327.628607 327.628607 0 1 0-655.257215 0Z" fill="#E9EAEB" p-id="4704"></path><path d="M394.439147 556.326223v205.570891h244.115433v-64.240903s51.392723-17.987453 51.392722-77.089084v-64.240904h-295.508155z" fill="#FFFFFF" p-id="4705"></path><path d="M651.40276 761.897114h-25.696361v-73.23463l8.993726-2.569636c1.284818 0 42.398996-16.702635 42.398997-65.525721v-51.392723h-269.811795v192.72271h-25.696361v-218.419071h308.356336v5.139272h12.848181v71.949812c0 52.677541-34.690088 77.089084-51.392723 84.797992v56.531995z" fill="#2A5082" p-id="4706"></path><path d="M368.742785 761.897114h295.508156v89.937265h-295.508156z" fill="#E9EAEB" p-id="4707"></path><path d="M677.099122 851.834379h-25.696362v-77.089084h-269.811794v77.089084h-25.696361v-102.785445h321.204517z" fill="#2A5082" p-id="4708"></path><path d="M201.716437 247.969887h680.953576v334.052698h-680.953576z" fill="#FFFFFF" p-id="4709"></path><path d="M895.518193 594.870765h-706.649937v-359.749059h706.649937v359.749059z m-680.953576-25.696361h655.257215v-308.356336h-655.257215v308.356336z" fill="#2A5082" p-id="4710"></path><path d="M779.884567 517.781681h-475.382685c0-21.841907-16.702635-38.544542-38.544542-38.544542v-128.481807c21.841907 0 38.544542-16.702635 38.544542-38.544542h475.382685c0 21.841907 16.702635 38.544542 38.544542 38.544542v128.481807c-21.841907 0-38.544542 17.987453-38.544542 38.544542z" fill="#A3D4FF" p-id="4711"></path><path d="M792.732748 530.629862h-501.079047v-12.848181c0-14.132999-11.563363-25.696361-25.696361-25.696361h-12.848181v-154.178168h12.848181c14.132999 0 25.696361-11.563363 25.696361-25.696362v-12.84818h501.079047v12.84818c0 14.132999 11.563363 25.696361 25.696361 25.696362h12.848181v154.178168h-12.848181c-14.132999 0-25.696361 11.563363-25.696361 25.696361v12.848181z m-477.952321-25.696361h453.540778c5.139272-17.987453 19.272271-32.120452 37.259723-37.259724v-106.6399c-17.987453-5.139272-32.120452-19.272271-37.259723-37.259724H314.780427c-5.139272 17.987453-19.272271 32.120452-37.259724 37.259724v106.6399c19.272271 5.139272 33.40527 19.272271 37.259724 37.259724z" fill="#2A5082" p-id="4712"></path><path d="M381.590966 402.148055h25.696361v25.696362h-25.696361zM677.099122 402.148055h38.544542v25.696362h-38.544542z" fill="#2A5082" p-id="4713"></path><path d="M484.376412 414.996236c0-35.974906 25.696361-64.240903 57.816813-64.240904s57.816813 28.265997 57.816813 64.240904-25.696361 64.240903-57.816813 64.240903-57.816813-28.265997-57.816813-64.240903z" fill="#FFFFFF" p-id="4714"></path><path d="M542.193225 492.08532c-19.272271 0-37.259724-7.708908-50.107905-23.126725-12.848181-14.132999-20.557089-33.40527-20.557089-53.962359 0-42.398996 32.120452-77.089084 70.664994-77.089084 19.272271 0 37.259724 7.708908 50.107904 23.126725 12.848181 14.132999 20.557089 33.40527 20.557089 53.962359s-7.708908 39.82936-20.557089 53.962359c-12.848181 15.417817-30.835634 23.126725-50.107904 23.126725z m-57.816813-77.089084h12.84818c0 14.132999 5.139272 26.981179 14.132999 37.259724 8.993726 8.993726 19.272271 14.132999 30.835634 14.132999 11.563363 0 23.126725-5.139272 30.835633-14.132999 8.993726-10.278545 14.132999-23.126725 14.132999-37.259724s-5.139272-26.981179-14.132999-37.259724c-8.993726-8.993726-19.272271-14.132999-30.835633-14.132999-24.411543 0-44.968632 23.126725-44.968633 51.392723h-12.84818z" fill="#2A5082" p-id="4715"></path><path d="M535.769134 659.111669s-3.854454-102.785445-102.785445-102.785446v-89.937264c0-59.101631-89.937265-83.513174-89.937265-38.544542v186.298619c0 48.823087 51.392723 83.513174 51.392723 83.513175v51.392723l141.329987-89.937265z" fill="#FFFFFF" p-id="4716"></path><path d="M407.287327 749.048934h-25.696361v-44.968633c-14.132999-11.563363-51.392723-46.25345-51.392723-89.937265V427.844417c0-14.132999 6.42409-23.126725 12.848181-26.98118 6.42409-5.139272 15.417817-8.993726 26.98118-8.993726 32.120452 0 77.089084 28.265997 77.089084 74.519448v77.089084c77.089084 6.42409 101.500627 77.089084 102.785445 114.348808l-25.696361 1.284818c0-3.854454-5.139272-89.937265-89.937265-89.937265h-12.848181v-102.785445c0-29.550816-30.835634-48.823087-51.392722-48.823087-5.139272 0-7.708908 1.284818-10.278545 2.569636-1.284818 0-2.569636 2.569636-2.569636 7.708909v186.298619c0 41.114178 44.968632 73.23463 46.25345 73.23463l5.139273 3.854454-1.284819 57.816814zM407.287327 800.441656h38.544543v25.696362h-38.544543z" fill="#2A5082" p-id="4717"></path></svg>